<svg width="14" height="11" viewBox="0 0 14 11" fill="none" xmlns="http://www.w3.org/2000/svg">
<path d="M12.25 0.25H1.75001C1.44074 0.250792 1.14437 0.373998 0.925689 0.592681C0.707006 0.811365 0.5838 1.10774 0.583008 1.417V8.417C0.5838 8.72626 0.707006 9.02264 0.925689 9.24132C1.14437 9.46 1.44074 9.58321 1.75001 9.584H4.66601V10.75H9.33301V9.583H12.25C12.5593 9.58221 12.8556 9.459 13.0743 9.24032C13.293 9.02164 13.4162 8.72526 13.417 8.416V1.416C13.416 1.10691 13.2926 0.810794 13.074 0.592327C12.8553 0.373859 12.5591 0.250791 12.25 0.25ZM12.25 8.417H1.75001V1.417H12.25V8.417ZM11.083 3.167H4.66601V4.333H11.083V3.167ZM11.083 5.5H4.66601V6.667H11.083V5.5ZM4.08301 3.167H2.91601V4.333H4.08301V3.167ZM4.08301 5.5H2.91601V6.667H4.08301V5.5Z" fill="#747474"/>
</svg>
